{
  "accessors": [
    {
      "name": "Node-Mesh_0_positions",
      "componentType": 5126,
      "count": 1672,
      "min": [-0.5148770213127136, 0.5939670205116272, -0.2590219974517822],
      "max": [0.5780680179595947, 1.5403529405593872, 0.25109800696372986],
      "type": "VEC3",
      "bufferView": 0,
      "byteOffset": 0
    },
    {
      "name": "Node-Mesh_0_texcoords",
      "componentType": 5126,
      "count": 1672,
      "min": [0.125, 0],
      "max": [0.875, 1],
      "type": "VEC2",
      "bufferView": 1,
      "byteOffset": 0
    },
    {
      "name": "Node-Mesh_0_indices",
      "componentType": 5123,
      "count": 5928,
      "min": [0],
      "max": [1671],
      "type": "SCALAR",
      "bufferView": 2,
      "byteOffset": 0
    },
    {
      "name": "Node-Mesh_1_positions",
      "componentType": 5126,
      "count": 94,
      "min": [-0.5173460245132446, -0.011064000427722931, -0.25144100189208984],
      "max": [0.5173460245132446, 1.1276559829711914, 0.251585990190506],
      "type": "VEC3",
      "bufferView": 0,
      "byteOffset": 20064
    },
    {
      "name": "Node-Mesh_1_texcoords",
      "componentType": 5126,
      "count": 94,
      "min": [0.125, 0],
      "max": [0.875, 1],
      "type": "VEC2",
      "bufferView": 1,
      "byteOffset": 13376
    },
    {
      "name": "Node-Mesh_1_indices",
      "componentType": 5123,
      "count": 324,
      "min": [0],
      "max": [93],
      "type": "SCALAR",
      "bufferView": 2,
      "byteOffset": 11856
    }
  ],
  "asset": {
    "generator": "obj2gltf",
    "version": "2.0"
  },
  "buffers": [
    {
      "uri": "French-fries_data.bin",
      "byteLength": 47824
    }
  ],
  "bufferViews": [
    {
      "name": "bufferView_0",
      "buffer": 0,
      "byteLength": 21192,
      "byteOffset": 0,
      "byteStride": 12,
      "target": 34962
    },
    {
      "name": "bufferView_1",
      "buffer": 0,
      "byteLength": 14128,
      "byteOffset": 21192,
      "byteStride": 8,
      "target": 34962
    },
    {
      "name": "bufferView_2",
      "buffer": 0,
      "byteLength": 12504,
      "byteOffset": 35320,
      "target": 34963
    }
  ],
  "materials": [
    {
      "name": "lambert3SG",
      "pbrMetallicRoughness": {
        "baseColorFactor": [0.9, 0.43, 0.06, 1],
        "metallicFactor": 0,
        "roughnessFactor": 1
      },
      "emissiveFactor": [0, 0, 0],
      "alphaMode": "OPAQUE",
      "doubleSided": false
    },
    {
      "name": "lambert2SG",
      "pbrMetallicRoughness": {
        "baseColorFactor": [0.67, 0.02, 0.02, 1],
        "metallicFactor": 0,
        "roughnessFactor": 1
      },
      "emissiveFactor": [0, 0, 0],
      "alphaMode": "OPAQUE",
      "doubleSided": false
    }
  ],
  "meshes": [
    {
      "name": "Node-Mesh",
      "primitives": [
        {
          "attributes": {
            "POSITION": 0,
            "TEXCOORD_0": 1
          },
          "indices": 2,
          "material": 0,
          "mode": 4
        },
        {
          "attributes": {
            "POSITION": 3,
            "TEXCOORD_0": 4
          },
          "indices": 5,
          "material": 1,
          "mode": 4
        }
      ]
    }
  ],
  "nodes": [
    {
      "name": "Node",
      "mesh": 0
    }
  ],
  "scene": 0,
  "scenes": [
    {
      "nodes": [0]
    }
  ]
}
